<svg width="49" height="42" viewBox="0 0 49 42" fill="none" xmlns="http://www.w3.org/2000/svg">
<path d="M43.7616 4.72221V4.72236H22.0295V9.22977H43.7617V19.194L15.2441 24.817L12.9312 9.22948L12.2617 4.72221L11.5933 0.215088H10.7209H7.04841H0.630859V4.7225H7.71675L10.8288 25.6879L11.478 30.0668L12.3484 35.9287H12.9549H16.8935H16.9325C16.9077 36.1331 16.8935 36.3407 16.8935 36.5516C16.8935 39.4398 19.2814 41.7809 22.2283 41.7809C25.1743 41.7809 27.5623 39.4398 27.5623 36.5516C27.5623 36.3407 27.548 36.1331 27.5233 35.9287H35.4304C35.4056 36.1331 35.3914 36.3407 35.3914 36.5516C35.3914 39.4398 37.7793 41.7809 40.7262 41.7809C43.6722 41.7809 46.0601 39.4398 46.0601 36.5516C46.0601 36.3407 46.0459 36.1331 46.0212 35.9287H48.3587V31.4203H16.224L15.8945 29.1959L43.7616 23.7013L48.3589 22.7943V18.2872V9.22991V4.7225V4.72236H43.7616V4.72221Z" fill="black"/>
</svg>
