<svg width="55" height="55" viewBox="0 0 55 55" fill="none" xmlns="http://www.w3.org/2000/svg">
<path d="M32.463 21.8739L31.8573 24.2951H40.566L38.9644 30.7054H30.2537L29.6499 33.1265H38.3586L36.755 39.5368H12.2266L13.8182 33.1265H22.525L23.1327 30.7054H14.424L16.0157 24.2951H24.7343L25.3421 21.8739H16.6175L18.2092 15.4617H42.7733L41.1717 21.8739H32.463Z" fill="#221F1F"/>
<path d="M27.5 55C12.3375 55 0 42.6625 0 27.5C0 12.3375 12.3375 0 27.5 0C42.6625 0 55 12.3355 55 27.5C55 42.6645 42.6625 55 27.5 55ZM27.5 4.81859C23.014 4.81859 18.6288 6.14883 14.8989 8.6411C11.1689 11.1334 8.26181 14.6757 6.54511 18.8202C4.82841 22.9647 4.37924 27.5252 5.25441 31.9249C6.12957 36.3247 8.28977 40.3661 11.4618 43.5382C14.6339 46.7102 18.6753 48.8704 23.0751 49.7456C27.4748 50.6208 32.0353 50.1716 36.1798 48.4549C40.3243 46.7382 43.8666 43.8311 46.3589 40.1011C48.8512 36.3712 50.1814 31.986 50.1814 27.5C50.1746 21.4866 47.7828 15.7215 43.5307 11.4693C39.2785 7.21723 33.5134 4.8254 27.5 4.81859Z" fill="#221F1F"/>
</svg>
