<svg width="110" height="16" viewBox="0 0 110 16" fill="none" xmlns="http://www.w3.org/2000/svg">
<path d="M10.2941 15.7328L12.9323 3.87939H7.35727L4.73255 15.7328H0L3.42691 0.284424H18.457L15.0301 15.7328H10.2941Z" fill="#221F1F"/>
<path d="M19.192 15.7328L19.9741 12.1925C20.3046 12.2635 20.6423 12.2991 20.981 12.2988C21.2064 12.2976 21.4311 12.276 21.6523 12.2344C21.8761 12.1934 22.093 12.123 22.2967 12.0252C22.4976 11.9292 22.6821 11.8043 22.8438 11.6551L20.2426 0.284424H25.2L26.2271 7.44539H26.452L30.4797 0.284424H35.5479L28.1637 11.3107C27.588 12.1917 26.9248 13.0173 26.1834 13.776C25.5344 14.4392 24.7569 14.9748 23.8944 15.353C22.9577 15.7376 21.946 15.9253 20.9273 15.9034C20.3447 15.8964 19.764 15.8393 19.192 15.7328Z" fill="#221F1F"/>
<path d="M45.3688 6.38012V6.07759C45.3781 5.64586 45.2618 5.22016 45.0332 4.84816C44.8096 4.49002 44.4926 4.19387 44.1135 3.98884C43.7163 3.77108 43.2653 3.65991 42.8078 3.667C42.2384 3.66186 41.6778 3.8018 41.1833 4.07252C40.6686 4.36006 40.229 4.7563 39.8978 5.23115C39.5164 5.7718 39.2327 6.37022 39.0587 7.00127C38.8553 7.73613 38.756 8.49389 38.7634 9.25416C38.7498 9.81387 38.856 10.3703 39.0755 10.8891C39.2536 11.3247 39.5687 11.6964 39.9771 11.9525C40.3855 12.2085 40.8669 12.3363 41.3545 12.3181C41.8482 12.3232 42.3367 12.2214 42.7836 12.0202C43.2306 11.8191 43.6243 11.5237 43.9356 11.1562C44.2627 10.7654 44.5047 10.3156 44.6472 9.83348H49.2388C49.07 11.0048 48.5865 12.1138 47.8358 13.0519C47.0752 13.989 46.0863 14.7328 44.956 15.2179C43.7183 15.7488 42.3745 16.0135 41.0189 15.9935C39.7155 16.0223 38.4244 15.7473 37.2563 15.1921C36.217 14.6872 35.3521 13.9048 34.7659 12.9392C34.1589 11.897 33.8541 10.7179 33.8831 9.52451C33.8672 8.18928 34.0944 6.86163 34.5544 5.60126C34.953 4.48681 35.5911 3.46495 36.4273 2.60171C37.2595 1.7589 38.2731 1.09995 39.3977 0.67066C40.6377 0.210635 41.9584 -0.0166289 43.2878 0.00123004C44.4897 -0.0201357 45.6791 0.23712 46.755 0.75112C47.7255 1.22066 48.5471 1.93076 49.1347 2.80768C49.7171 3.70601 50.0166 4.74644 49.9973 5.80402C49.9988 5.93188 49.9932 6.05973 49.9805 6.18702C49.9805 6.30288 49.957 6.40587 49.9436 6.49276H45.3554C45.3643 6.45582 45.3688 6.41803 45.3688 6.38012Z" fill="#221F1F"/>
<path d="M53.4846 15.7328L56.1093 3.87939H51.6318L52.4374 0.284424H66.1249L65.3227 3.87939H60.8452L58.2205 15.7328H53.4846Z" fill="#221F1F"/>
<path d="M68.5112 15.1407C67.4542 14.6034 66.5787 13.7884 65.9872 12.7912C65.394 11.7627 65.092 10.6032 65.1112 9.42801C65.0912 8.11077 65.3256 6.80136 65.8026 5.56591C66.2305 4.46212 66.8818 3.45037 67.7191 2.58888C68.5187 1.77146 69.4853 1.1207 70.5586 0.677147C71.653 0.23249 72.8306 0.00687962 74.0191 0.0141539C75.4169 -0.029314 76.8031 0.269768 78.0468 0.883125C79.1008 1.41993 79.9721 2.23531 80.5574 3.23256C81.1447 4.26056 81.4431 5.41736 81.4233 6.58937C81.4425 7.90712 81.2058 9.21678 80.7252 10.4515C80.2955 11.5573 79.6393 12.5696 78.7953 13.4285C77.9892 14.2458 77.0156 14.8945 75.9356 15.3338C74.8358 15.78 73.6525 16.0056 72.4584 15.9968C71.0885 16.0343 69.7309 15.7399 68.5112 15.1407ZM72.3845 4.06292C71.8795 4.37251 71.4446 4.77639 71.1057 5.25051C70.7186 5.78812 70.4229 6.38125 70.2297 7.00776C70.0074 7.70119 69.8942 8.42255 69.8941 9.148C69.8815 9.7317 69.9958 10.3115 70.2297 10.8505C70.4266 11.304 70.7522 11.6953 71.1695 11.9802C71.5863 12.2528 72.0815 12.3935 72.5859 12.3825C73.1313 12.3826 73.6656 12.2342 74.1265 11.9545C74.6344 11.646 75.0717 11.242 75.412 10.7669C75.806 10.2285 76.1075 9.63306 76.3048 9.00318C76.5212 8.30557 76.6287 7.58108 76.6237 6.85328C76.6385 6.26836 76.5241 5.68705 76.288 5.14752C76.0951 4.699 75.774 4.31187 75.3617 4.03073C74.9404 3.76281 74.4439 3.62469 73.9385 3.63487C73.3884 3.63123 72.8488 3.77986 72.3845 4.06292Z" fill="#221F1F"/>
<path d="M85.2194 15.7328L87.8442 3.87939H83.3667L84.1722 0.284424H97.8497L97.0475 3.87939H92.5801L89.9554 15.7328H85.2194Z" fill="#221F1F"/>
<path d="M104.996 12.6624H100.105L98.5211 15.7328H93.5402L102.404 0.284424H108.345L110 15.7328H105.143L104.996 12.6624ZM101.747 9.44402H104.851L104.606 4.0564H104.506L101.747 9.44402Z" fill="#221F1F"/>
</svg>
