<svg width="272" height="105" viewBox="0 0 272 105" fill="none" xmlns="http://www.w3.org/2000/svg">
<path d="M172.116 36.8586C174.53 35.2249 176.687 33.2402 178.514 30.9701C184.705 23.3412 184.079 23.1565 184.079 21.6861C184.079 20.2158 130.221 65.4065 130.221 65.4065L108.968 84.4432C108.968 84.4432 100.509 91.6317 102.357 85.4092C104.205 79.1868 114.74 68.4965 129.596 60.0436C129.596 60.0436 139.348 53.0185 142.099 48.9697C142.099 48.9697 138.808 53.7715 141.516 53.743C144.224 53.7146 151.723 49.2609 151.723 49.2609C151.723 49.2609 147.956 52.4431 151.723 51.6476C155.491 50.852 181.535 44.6722 196.782 36.3401C196.782 36.3401 208.098 30.9843 213.337 27.2977C218.575 23.6111 218.931 18.9656 218.113 17.4171C217.296 15.8686 161.888 60.7468 161.888 60.7468C161.888 60.7468 157.836 62.2953 159.386 60.5124C160.935 58.7295 167.041 50.8662 183.447 48.1244C199.852 45.3825 204.06 41.1064 204.06 41.1064" stroke="#221F1F" stroke-miterlimit="10"/>
<path d="M68.1101 75.9195C68.1101 75.9195 110.617 55.5048 119.495 50.5609C128.373 45.6171 143.122 34.2661 144.722 29.3151C146.321 24.3642 148.482 21.6863 144.722 24.7833C140.961 27.8803 88.5673 75.9266 88.5673 75.9266C88.5673 75.9266 56.7869 106.47 46.8852 99.8503C46.8852 99.8503 44.4045 96.9663 52.8703 89.5435C61.3361 82.1206 108.584 52.422 108.584 52.422C108.584 52.422 95.1708 67.2677 115.6 54.8939C115.6 54.8939 106.316 66.8557 135.616 54.0699C156.23 45.0914 165.996 41.0923 172.145 36.8659" stroke="#221F1F" stroke-miterlimit="10"/>
</svg>
